<svg width="16" height="16" viewBox="0 0 16 16" fill="none" xmlns="http://www.w3.org/2000/svg">
<path d="M13.7467 5.63333C13.0467 2.55333 10.36 1.16667 8 1.16667C8 1.16667 8 1.16667 7.99334 1.16667C5.64 1.16667 2.94667 2.54667 2.24667 5.62667C1.46667 9.06667 3.57334 11.98 5.48 13.8133C6.18667 14.4933 7.09334 14.8333 8 14.8333C8.90667 14.8333 9.81334 14.4933 10.5133 13.8133C12.42 11.98 14.5267 9.07333 13.7467 5.63333ZM8 8.97333C6.84 8.97333 5.9 8.03333 5.9 6.87333C5.9 5.71333 6.84 4.77333 8 4.77333C9.16 4.77333 10.1 5.71333 10.1 6.87333C10.1 8.03333 9.16 8.97333 8 8.97333Z" fill="#6E7191"/>
</svg>
