<svg width="85" height="16" viewBox="0 0 85 16" fill="none" xmlns="http://www.w3.org/2000/svg">
<path d="M4.496 11.4416C4.48094 11.5176 4.47341 11.6163 4.47341 11.7379C4.47341 12.0114 4.54872 12.2089 4.69934 12.3305C4.86502 12.452 5.12861 12.5128 5.49009 12.5128H6.86827L6.28085 15.8177H4.31526C1.78485 15.8177 0.519639 14.7464 0.519639 12.604C0.519639 12.2849 0.557294 11.8822 0.632604 11.396L1.53632 6.33618H0L0.564825 3.09971H2.10115L2.64338 0H6.50678L5.96455 3.09971H8.49496L7.93014 6.33618H5.39972L4.496 11.4416Z" fill="#FF006B"/>
<path d="M14.194 16C13.1096 16 12.1456 15.7797 11.3021 15.339C10.4587 14.8984 9.80347 14.2754 9.33655 13.4701C8.88469 12.6648 8.65876 11.7303 8.65876 10.6667C8.65876 9.22317 8.99765 7.90883 9.67544 6.72365C10.3532 5.53846 11.2871 4.61159 12.477 3.94302C13.6669 3.25926 14.9923 2.91738 16.4533 2.91738C17.5378 2.91738 18.5018 3.1453 19.3452 3.60114C20.2038 4.04178 20.8665 4.66477 21.3334 5.47008C21.8003 6.2754 22.0338 7.20988 22.0338 8.2735C22.0338 9.73219 21.6874 11.0541 20.9945 12.2393C20.3167 13.4093 19.3754 14.3286 18.1704 14.9972C16.9805 15.6657 15.6551 16 14.194 16ZM14.7363 12.6496C15.3689 12.6496 15.9337 12.4596 16.4307 12.0798C16.9429 11.6847 17.3345 11.1833 17.6056 10.5755C17.8918 9.95252 18.0349 9.30674 18.0349 8.63818C18.0349 7.87844 17.8315 7.29345 17.4248 6.88319C17.0182 6.47293 16.5061 6.26781 15.8885 6.26781C15.2409 6.26781 14.6685 6.46534 14.1714 6.8604C13.6895 7.24026 13.3129 7.74169 13.0418 8.36467C12.7707 8.98765 12.6351 9.64103 12.6351 10.3248C12.6351 11.0693 12.8309 11.6467 13.2225 12.057C13.6142 12.452 14.1187 12.6496 14.7363 12.6496Z" fill="#FF006B"/>
<path d="M41.1637 2.96296C42.5193 2.96296 43.5736 3.32764 44.3267 4.05698C45.0949 4.77113 45.479 5.77398 45.479 7.06553C45.479 7.46059 45.4338 7.90123 45.3434 8.38746L44.033 15.8177H40.1922L41.4122 8.91168C41.4424 8.75973 41.4574 8.55461 41.4574 8.2963C41.4574 7.65812 41.2767 7.17189 40.9152 6.83761C40.5688 6.50332 40.0792 6.33618 39.4466 6.33618C38.6935 6.33618 38.0609 6.5641 37.5488 7.01994C37.0367 7.46059 36.7129 8.09117 36.5773 8.91168L35.3573 15.8177H31.5165L32.7365 8.91168C32.7667 8.75973 32.7817 8.55461 32.7817 8.2963C32.7817 7.65812 32.601 7.17189 32.2395 6.83761C31.8931 6.50332 31.4035 6.33618 30.7709 6.33618C30.0178 6.33618 29.3852 6.5641 28.8731 7.01994C28.361 7.46059 28.0372 8.09117 27.9016 8.91168V8.79772L26.6816 15.8177H22.8182L25.0323 3.09971H28.8957L28.6246 4.71795C29.1066 4.17094 29.6865 3.74549 30.3643 3.44159C31.0571 3.12251 31.8027 2.96296 32.601 2.96296C33.5649 2.96296 34.3783 3.16809 35.041 3.57835C35.7188 3.9886 36.2008 4.5812 36.487 5.35612C37.0443 4.64197 37.7371 4.06458 38.5655 3.62393C39.3939 3.18329 40.26 2.96296 41.1637 2.96296Z" fill="#FF006B"/>
<path d="M47.0965 9.4359C47.3224 8.12915 47.7667 6.98196 48.4295 5.9943C49.0922 5.00665 49.8905 4.24691 50.8243 3.7151C51.7582 3.18328 52.7447 2.91738 53.784 2.91738C54.6727 2.91738 55.4182 3.09971 56.0207 3.46439C56.6232 3.82906 57.06 4.30769 57.3311 4.90028L57.6474 3.09971H61.5108L59.2741 15.8177H55.4107L55.7496 14.0171C55.2676 14.6097 54.6576 15.0883 53.9196 15.453C53.1815 15.8177 52.3682 16 51.4795 16C50.5909 16 49.8001 15.7949 49.1073 15.3846C48.4295 14.9744 47.9023 14.397 47.5257 13.6524C47.1492 12.8927 46.9609 12.0038 46.9609 10.9858C46.9609 10.4995 47.0061 9.98291 47.0965 9.4359ZM56.5404 9.45869C56.5855 9.18519 56.6081 8.93447 56.6081 8.70655C56.6081 7.96201 56.3897 7.37702 55.9529 6.95157C55.5312 6.52611 54.989 6.31339 54.3262 6.31339C53.5581 6.31339 52.8577 6.59449 52.2251 7.15669C51.5925 7.7037 51.1933 8.46344 51.0277 9.4359C50.9825 9.7094 50.9599 9.96011 50.9599 10.188C50.9599 10.9326 51.1708 11.5252 51.5925 11.9658C52.0293 12.3913 52.5715 12.604 53.2192 12.604C53.9873 12.604 54.6877 12.3229 55.3203 11.7607C55.9529 11.1985 56.3596 10.4311 56.5404 9.45869Z" fill="#FF006B"/>
<path d="M67.3107 11.4416C67.2956 11.5176 67.2881 11.6163 67.2881 11.7379C67.2881 12.0114 67.3634 12.2089 67.514 12.3305C67.6797 12.452 67.9433 12.5128 68.3048 12.5128H69.6829L69.0955 15.8177H67.1299C64.5995 15.8177 63.3343 14.7464 63.3343 12.604C63.3343 12.2849 63.372 11.8822 63.4473 11.396L64.351 6.33618H62.8147L63.3795 3.09971H64.9158L65.4581 0H69.3214L68.7792 3.09971H71.3096L70.7448 6.33618H68.2144L67.3107 11.4416Z" fill="#FF006B"/>
<path d="M77.0087 16C75.9243 16 74.9603 15.7797 74.1168 15.339C73.2733 14.8984 72.6181 14.2754 72.1512 13.4701C71.6994 12.6648 71.4734 11.7303 71.4734 10.6667C71.4734 9.22317 71.8123 7.90883 72.4901 6.72365C73.1679 5.53846 74.1018 4.61159 75.2917 3.94302C76.4816 3.25926 77.807 2.91738 79.268 2.91738C80.3525 2.91738 81.3164 3.1453 82.1599 3.60114C83.0184 4.04178 83.6812 4.66477 84.1481 5.47008C84.615 6.2754 84.8485 7.20988 84.8485 8.2735C84.8485 9.73219 84.5021 11.0541 83.8092 12.2393C83.1314 13.4093 82.19 14.3286 80.9851 14.9972C79.7952 15.6657 78.4697 16 77.0087 16ZM77.5509 12.6496C78.1836 12.6496 78.7484 12.4596 79.2454 12.0798C79.7575 11.6847 80.1491 11.1833 80.4203 10.5755C80.7064 9.95252 80.8495 9.30674 80.8495 8.63818C80.8495 7.87844 80.6462 7.29345 80.2395 6.88319C79.8328 6.47293 79.3207 6.26781 78.7032 6.26781C78.0555 6.26781 77.4832 6.46534 76.9861 6.8604C76.5041 7.24026 76.1276 7.74169 75.8565 8.36467C75.5854 8.98765 75.4498 9.64103 75.4498 10.3248C75.4498 11.0693 75.6456 11.6467 76.0372 12.057C76.4288 12.452 76.9334 12.6496 77.5509 12.6496Z" fill="#FF006B"/>
</svg>
