<svg width="32" height="32" viewBox="0 0 32 32" fill="none" xmlns="http://www.w3.org/2000/svg">
<path d="M23.4667 7.08L15.9333 3.02667C15.1333 2.6 14.1867 2.6 13.3867 3.02667L5.86666 7.08C5.31999 7.38667 4.97333 7.97333 4.97333 8.61333C4.97333 9.26666 5.30666 9.85333 5.86666 10.1467L13.4 14.2C13.8 14.4133 14.24 14.52 14.6667 14.52C15.0933 14.52 15.5467 14.4133 15.9333 14.2L23.4667 10.1467C24.0133 9.85333 24.36 9.26666 24.36 8.61333C24.36 7.97333 24.0133 7.38667 23.4667 7.08Z" fill="#1AB759"/>
<path d="M12.16 15.6133L5.16 12.12C4.61333 11.84 4 11.88 3.48 12.1867C2.97333 12.5067 2.66666 13.0533 2.66666 13.6533V20.2667C2.66666 21.4133 3.30666 22.44 4.33333 22.96L11.3333 26.4533C11.5733 26.5733 11.84 26.64 12.1067 26.64C12.4133 26.64 12.7333 26.5467 13.0133 26.3867C13.52 26.0667 13.8267 25.52 13.8267 24.92V18.3067C13.8133 17.16 13.1733 16.1333 12.16 15.6133Z" fill="#1AB759"/>
<path d="M26.6667 13.6533V16.9333C26.0267 16.7467 25.3467 16.6667 24.6667 16.6667C22.8533 16.6667 21.08 17.2933 19.68 18.4133C17.76 19.92 16.6667 22.2 16.6667 24.6667C16.6667 25.32 16.7467 25.9733 16.92 26.6C16.72 26.5733 16.52 26.4933 16.3333 26.3733C15.8267 26.0667 15.52 25.52 15.52 24.92V18.3067C15.52 17.16 16.16 16.1333 17.1733 15.6133L24.1733 12.12C24.72 11.84 25.3333 11.88 25.8533 12.1867C26.36 12.5067 26.6667 13.0533 26.6667 13.6533Z" fill="#1AB759"/>
<path d="M29.3067 20.8933C28.2133 19.5467 26.5467 18.6933 24.6667 18.6933C23.2533 18.6933 21.9467 19.1867 20.92 20.0133C19.5333 21.1067 18.6667 22.8 18.6667 24.6933C18.6667 25.8133 18.9867 26.88 19.5333 27.7867C19.8933 28.3867 20.3467 28.9067 20.88 29.3333H20.8933C21.92 30.1867 23.24 30.6933 24.6667 30.6933C26.1867 30.6933 27.56 30.1333 28.6133 29.2C29.08 28.8 29.48 28.32 29.8 27.7867C30.3467 26.88 30.6667 25.8133 30.6667 24.6933C30.6667 23.2533 30.16 21.92 29.3067 20.8933ZM27.68 23.9467L24.48 26.9067C24.2933 27.08 24.04 27.1733 23.8 27.1733C23.5467 27.1733 23.2933 27.08 23.0933 26.88L21.6133 25.4C21.2267 25.0133 21.2267 24.3733 21.6133 23.9867C22 23.6 22.64 23.6 23.0267 23.9867L23.8267 24.7867L26.32 22.48C26.72 22.1067 27.36 22.1333 27.7333 22.5333C28.12 22.9467 28.0933 23.5733 27.68 23.9467Z" fill="#1AB759"/>
</svg>
