<svg width="591" height="543" viewBox="0 0 591 543" fill="none" xmlns="http://www.w3.org/2000/svg">
<g id="confirm">
<path id="Fill 1" fill-rule="evenodd" clip-rule="evenodd" d="M396.203 522.524C396.203 526.384 346.521 529.515 285.234 529.515C223.947 529.515 174.261 526.384 174.261 522.524C174.261 518.665 223.947 515.534 285.234 515.534C346.521 515.534 396.203 518.665 396.203 522.524" fill="#FFC7DE"/>
<path id="Stroke 3" d="M271.217 73.398C210.68 78.5226 188.431 129.763 206.658 159.631C219.52 180.705 241.313 209.185 281.939 202.354C322.563 195.52 325.986 157.924 304.591 152.81C283.196 147.698 206.976 171.549 215.59 226.648C221.809 266.404 275.705 277.864 275.705 277.864" stroke="#FFC7DE" stroke-dasharray="7"/>
<path id="Fill 5" fill-rule="evenodd" clip-rule="evenodd" d="M306.206 41.9417C306.206 41.9417 314.88 19.282 315.795 10.4671C316.276 5.86105 308.643 -6.96321 299.709 4.89923C290.776 16.7617 294.851 31.3065 306.206 41.9417" fill="#FFC7DE"/>
<path id="Fill 7" fill-rule="evenodd" clip-rule="evenodd" d="M275.425 17.2639C265.263 13.8274 260.663 16.5068 258.703 21.8549C256.741 27.2048 259.479 37.388 274.806 39.7093C290.135 42.0306 305.331 41.9415 305.331 41.9415C305.331 41.9415 285.587 20.7005 275.425 17.2639" fill="#FFC7DE"/>
<path id="Fill 9" fill-rule="evenodd" clip-rule="evenodd" d="M304.485 46.4318C304.715 45.4846 305.02 44.5768 305.36 43.6895C303.484 43.9858 301.575 44.4021 299.654 44.9656C297.57 45.5754 295.625 46.3753 293.795 47.2917C293.001 48.7921 292.358 50.3954 291.94 52.1168C289.365 62.7143 295.444 73.3957 305.659 76.8934C306.765 76.6741 307.876 76.4206 308.989 76.0952C312.1 75.184 314.969 73.9781 317.563 72.5804C307.588 68.204 301.847 57.2828 304.485 46.4318" fill="#FFC7DE"/>
<path id="Fill 11" fill-rule="evenodd" clip-rule="evenodd" d="M289.9 51.958C290.144 50.9111 290.475 49.91 290.842 48.9318C282.005 54.593 277.057 63.3791 277.873 68.5027C272.226 70.9296 268.63 72.9741 268.63 72.9741C268.63 72.9741 272.89 72.6498 279.098 71.4566C282.424 76.3159 291.641 79.5694 301.834 78.4027C292.601 73.628 287.389 62.7622 289.9 51.958" fill="#FFC7DE"/>
<path id="Fill 13" fill-rule="evenodd" clip-rule="evenodd" d="M318.892 56.0455C316.708 55.5193 315.354 53.3168 315.88 51.1109C316.404 48.9201 318.611 47.5625 320.794 48.0887C322.988 48.6183 324.329 50.8292 323.806 53.0216C323.279 55.2258 321.088 56.5733 318.892 56.0455M308.686 43.9121C308.252 44.9232 307.882 45.9898 307.617 47.0946C305.301 56.7801 310.652 66.5227 319.727 69.902C327.299 65.1704 331.551 58.4705 329.826 52.6532C327.908 46.1279 319.089 42.7582 308.686 43.9121Z" fill="#FFC7DE"/>
<path id="Stroke 25" d="M18.7288 325.048V330.291" stroke="#FFC7DE" stroke-linecap="round"/>
<path id="Stroke 27" d="M8.24194 330.291L11.7371 333.786" stroke="#FFC7DE" stroke-linecap="round"/>
<path id="Stroke 29" d="M3 340.777H8.24272" stroke="#FFC7DE" stroke-linecap="round"/>
<path id="Stroke 31" d="M8.24194 351.262L11.7371 347.767" stroke="#FFC7DE" stroke-linecap="round"/>
<path id="Stroke 33" d="M18.7288 356.505V351.262" stroke="#FFC7DE" stroke-linecap="round"/>
<path id="Stroke 35" d="M29.2152 351.262L25.7201 347.767" stroke="#FFC7DE" stroke-linecap="round"/>
<path id="Stroke 37" d="M34.455 340.777H29.2123" stroke="#FFC7DE" stroke-linecap="round"/>
<path id="Stroke 39" d="M29.2152 330.291L25.7201 333.786" stroke="#FFC7DE" stroke-linecap="round"/>
<path id="Stroke 41" d="M287.854 110.097V113.592" stroke="#FFC7DE" stroke-width="0.8" stroke-linecap="round"/>
<path id="Stroke 43" d="M279.116 118.835H282.612" stroke="#FFC7DE" stroke-width="0.8" stroke-linecap="round"/>
<path id="Stroke 45" d="M287.854 129.32V125.825" stroke="#FFC7DE" stroke-width="0.8" stroke-linecap="round"/>
<path id="Stroke 47" d="M298.34 120.582H294.845" stroke="#FFC7DE" stroke-width="0.8" stroke-linecap="round"/>
<path id="Stroke 49" d="M95.6221 248.156V253.398" stroke="#FFC7DE" stroke-linecap="round"/>
<path id="Stroke 51" d="M79.8933 263.884H85.136" stroke="#FFC7DE" stroke-linecap="round"/>
<path id="Stroke 53" d="M93.8727 277.864V272.621" stroke="#FFC7DE" stroke-linecap="round"/>
<path id="Stroke 55" d="M109.602 263.884H104.359" stroke="#FFC7DE" stroke-linecap="round"/>
<path id="Stroke 57" d="M452.126 431.65C455.986 431.65 459.116 434.78 459.116 438.641C459.116 442.501 455.986 445.631 452.126 445.631C448.265 445.631 445.135 442.501 445.135 438.641" stroke="#FFC7DE" stroke-width="0.8" stroke-linecap="round"/>
<path id="Stroke 59" d="M485.213 526.963C486.104 533.204 481.791 538.988 475.58 539.883C469.374 540.777 463.617 536.443 462.727 530.203C461.837 523.96 466.149 518.176 472.359 517.281" stroke="#FFC7DE" stroke-linecap="round"/>
<path id="Fill 61" fill-rule="evenodd" clip-rule="evenodd" d="M485.331 365.242C489.568 363.902 496.061 358.655 497.565 353.01C498.927 358 504.641 363.902 509.797 364.35C503.994 366.433 498.445 372.618 497.565 377.476C496.965 372.524 489.292 365.963 485.331 365.242" fill="#FFC7DE"/>
<path id="Fill 63" fill-rule="evenodd" clip-rule="evenodd" d="M46.6904 429.028C48.8096 428.359 52.0559 425.735 52.8078 422.912C53.4889 425.407 56.3444 428.359 58.9234 428.583C56.0212 429.624 53.2469 432.716 52.8078 435.145C52.507 432.67 48.6714 429.389 46.6904 429.028" fill="#FFC7DE"/>
<path id="Fill 65" fill-rule="evenodd" clip-rule="evenodd" d="M85.1368 197.476C85.1368 200.372 82.789 202.718 79.8941 202.718C76.9975 202.718 74.6514 200.372 74.6514 197.476C74.6514 194.579 76.9975 192.233 79.8941 192.233C82.789 192.233 85.1368 194.579 85.1368 197.476" fill="#FFC7DE"/>
<path id="Fill 69" fill-rule="evenodd" clip-rule="evenodd" d="M588.438 186.989C588.438 190.851 585.309 193.98 581.449 193.98C577.586 193.98 574.458 190.851 574.458 186.989C574.458 183.129 577.586 180 581.449 180C585.309 180 588.438 183.129 588.438 186.989" fill="#FFC7DE"/>
<path id="Stroke 73" fill-rule="evenodd" clip-rule="evenodd" d="M186.496 160.777C186.496 163.673 184.149 166.019 181.254 166.019C178.357 166.019 176.011 163.673 176.011 160.777C176.011 157.88 178.357 155.534 181.254 155.534C184.149 155.534 186.496 157.88 186.496 160.777Z" stroke="#FFC7DE" stroke-width="0.8" stroke-linecap="round"/>
<path id="Stroke 75" fill-rule="evenodd" clip-rule="evenodd" d="M105.097 492.357C101.49 493.729 97.4538 491.918 96.0814 488.31C94.7073 484.703 96.5207 480.667 100.128 479.294C103.736 477.92 107.772 479.734 109.144 483.341C110.516 486.949 108.705 490.985 105.097 492.357Z" stroke="#FFC7DE" stroke-width="0.8" stroke-linecap="round"/>
<g id="Group 59">
<circle id="Ellipse 246" cx="283.8" cy="367.2" r="124.2" fill="url(#paint0_linear_636_2599)"/>
<circle id="Ellipse 247" cx="283.8" cy="367.2" r="91.8" fill="url(#paint1_linear_636_2599)"/>
<g id="Done">
<g id="Layer 2">
<g id="done-all">
<path id="Vector" d="M314.985 328.118C314.286 327.564 313.485 327.155 312.627 326.913C311.769 326.671 310.872 326.602 309.987 326.708C309.102 326.815 308.247 327.096 307.472 327.535C306.696 327.974 306.015 328.562 305.467 329.265L258.217 390.015L235.065 361.8C234.522 361.077 233.839 360.471 233.057 360.017C232.275 359.563 231.41 359.271 230.513 359.157C229.616 359.044 228.705 359.112 227.835 359.358C226.965 359.604 226.153 360.021 225.447 360.587C224.742 361.152 224.157 361.854 223.728 362.649C223.298 363.445 223.033 364.319 222.948 365.219C222.863 366.119 222.96 367.027 223.232 367.889C223.505 368.751 223.948 369.55 224.535 370.238L252.682 405.203C253.318 405.986 254.12 406.617 255.031 407.049C255.943 407.481 256.939 407.703 257.947 407.7C259.018 407.748 260.084 407.54 261.058 407.094C262.033 406.648 262.887 405.977 263.55 405.135L316.402 337.635C316.941 336.92 317.332 336.104 317.553 335.236C317.774 334.368 317.819 333.465 317.687 332.579C317.555 331.694 317.248 330.843 316.784 330.077C316.321 329.311 315.709 328.645 314.985 328.118V328.118ZM348.735 328.118C348.036 327.564 347.235 327.155 346.377 326.913C345.519 326.671 344.622 326.602 343.737 326.708C342.852 326.815 341.997 327.096 341.222 327.535C340.446 327.974 339.765 328.562 339.217 329.265L291.967 390.015L287.85 384.953L279.345 395.888L286.77 405.135C287.405 405.918 288.208 406.549 289.119 406.981C290.03 407.413 291.026 407.636 292.035 407.633C293.049 407.628 294.049 407.395 294.96 406.951C295.872 406.507 296.671 405.863 297.3 405.068L350.152 337.568C350.681 336.854 351.063 336.044 351.278 335.183C351.493 334.321 351.535 333.426 351.404 332.549C351.272 331.671 350.968 330.828 350.511 330.067C350.053 329.307 349.449 328.644 348.735 328.118V328.118Z" fill="white"/>
<path id="Vector_2" d="M261.592 374.355L270.3 363.42L268.95 361.8C268.417 361.062 267.74 360.439 266.96 359.969C266.18 359.499 265.313 359.192 264.412 359.066C263.51 358.94 262.592 358.997 261.713 359.235C260.834 359.473 260.012 359.886 259.297 360.45C258.604 361.007 258.027 361.696 257.601 362.476C257.175 363.257 256.907 364.114 256.813 364.998C256.718 365.883 256.8 366.777 257.053 367.63C257.305 368.483 257.724 369.277 258.285 369.968L261.592 374.355Z" fill="white"/>
</g>
</g>
</g>
</g>
</g>
<defs>
<linearGradient id="paint0_linear_636_2599" x1="603" y1="729" x2="603" y2="977.4" gradientUnits="userSpaceOnUse">
<stop stop-color="#FFCFE3"/>
<stop offset="1" stop-color="#FF79B0"/>
</linearGradient>
<linearGradient id="paint1_linear_636_2599" x1="667.8" y1="826.2" x2="667.8" y2="1009.8" gradientUnits="userSpaceOnUse">
<stop stop-color="#FFD6E6"/>
<stop offset="1" stop-color="#FF9BC5"/>
</linearGradient>
</defs>
</svg>
