<svg width="32" height="32" viewBox="0 0 32 32" fill="none" xmlns="http://www.w3.org/2000/svg">
<path d="M20 30.3333C19.64 30.3333 19.3067 30.1333 19.1333 29.8267C18.96 29.5067 18.96 29.1333 19.1467 28.8133L20.5467 26.48C20.8267 26.0133 21.44 25.8533 21.92 26.1333C22.4 26.4133 22.5467 27.0267 22.2667 27.5067L21.9067 28.1067C25.5867 27.24 28.3467 23.9333 28.3467 19.9867C28.3467 19.44 28.8 18.9867 29.3467 18.9867C29.8933 18.9867 30.3467 19.44 30.3467 19.9867C30.3333 25.6933 25.6933 30.3333 20 30.3333Z" fill="#008BBA"/>
<path d="M2.66666 13C2.12 13 1.66666 12.5467 1.66666 12C1.66666 6.30666 6.30666 1.66666 12 1.66666C12.36 1.66666 12.6933 1.86666 12.8667 2.17332C13.04 2.49332 13.04 2.86666 12.8533 3.18666L11.4533 5.51999C11.1733 5.98666 10.56 6.14666 10.08 5.85332C9.61333 5.57332 9.45333 4.95999 9.74666 4.47999L10.1067 3.87999C6.41333 4.74666 3.66666 8.05332 3.66666 12C3.66666 12.5467 3.21333 13 2.66666 13Z" fill="#008BBA"/>
<path d="M21.8667 10.9467L16.8533 8.24C16.32 7.96 15.6933 7.96 15.16 8.24L10.1333 10.9467C9.77334 11.1467 9.54667 11.5333 9.54667 11.96C9.54667 12.4 9.77334 12.7867 10.1333 12.9867L15.1467 15.6933C15.4133 15.84 15.7067 15.9067 16 15.9067C16.2933 15.9067 16.5867 15.84 16.8533 15.6933L21.8667 12.9867C22.2267 12.7867 22.4533 12.4 22.4533 11.96C22.4533 11.5333 22.2267 11.1467 21.8667 10.9467Z" fill="#008BBA"/>
<path d="M14.32 16.6267L9.65333 14.2933C9.29333 14.12 8.88 14.1333 8.53333 14.3467C8.2 14.56 8 14.92 8 15.32V19.7333C8 20.4933 8.42667 21.1867 9.10667 21.52L13.7733 23.8533C13.9333 23.9333 14.1067 23.9733 14.2933 23.9733C14.5067 23.9733 14.7067 23.92 14.8933 23.8C15.24 23.5867 15.44 23.2267 15.44 22.8267V18.4133C15.4267 17.6533 15.0133 16.9733 14.32 16.6267Z" fill="#008BBA"/>
<path d="M23.4533 14.3467C23.1067 14.1333 22.6933 14.12 22.3333 14.2933L17.6667 16.6267C16.9867 16.9733 16.56 17.6533 16.56 18.4133V22.8267C16.56 23.2267 16.76 23.5867 17.1067 23.8C17.2933 23.92 17.4933 23.9733 17.7067 23.9733C17.88 23.9733 18.0533 23.9333 18.2267 23.8533L22.8933 21.52C23.5733 21.1733 24 20.4933 24 19.7333V15.32C24 14.92 23.8 14.56 23.4533 14.3467Z" fill="#008BBA"/>
</svg>
