<svg width="330" height="303" viewBox="0 0 330 303" fill="none" xmlns="http://www.w3.org/2000/svg">
<g id="Wallet is Empty">
<path id="Fill 1" fill-rule="evenodd" clip-rule="evenodd" d="M221.446 290.291C221.446 292.436 193.845 294.175 159.797 294.175C125.748 294.175 98.1453 292.436 98.1453 290.291C98.1453 288.147 125.748 286.408 159.797 286.408C193.845 286.408 221.446 288.147 221.446 290.291Z" fill="#FFC7DE"/>
<path id="Stroke 3" d="M152.009 40.7767C118.378 43.6236 106.017 72.0904 116.143 88.6839C123.289 100.391 135.396 116.214 157.966 112.419C180.535 108.622 182.436 87.7356 170.55 84.8945C158.664 82.0543 116.32 95.3048 121.106 125.916C124.56 148.002 154.503 154.369 154.503 154.369" stroke="#FFC7DE" stroke-dasharray="7"/>
<path id="Fill 5" fill-rule="evenodd" clip-rule="evenodd" d="M171.448 23.301C171.448 23.301 176.267 10.7122 176.775 5.81505C177.042 3.25614 172.801 -3.86845 167.838 2.72179C162.875 9.31204 165.14 17.3925 171.448 23.301Z" fill="#FFC7DE"/>
<path id="Fill 7" fill-rule="evenodd" clip-rule="evenodd" d="M154.347 9.59106C148.702 7.68186 146.146 9.17042 145.057 12.1416C143.967 15.1138 145.488 20.7711 154.003 22.0607C162.519 23.3503 170.961 23.3008 170.961 23.3008C170.961 23.3008 159.993 11.5003 154.347 9.59106Z" fill="#FFC7DE"/>
<path id="Fill 9" fill-rule="evenodd" clip-rule="evenodd" d="M170.491 25.7954C170.619 25.2692 170.789 24.7648 170.978 24.2719C169.936 24.4365 168.875 24.6678 167.808 24.9808C166.65 25.3196 165.569 25.764 164.553 26.2731C164.112 27.1067 163.754 27.9974 163.522 28.9537C162.092 34.8412 165.469 40.7754 171.143 42.7185C171.758 42.5967 172.375 42.4559 172.994 42.2751C174.722 41.7688 176.316 41.0989 177.757 40.3224C172.216 37.8911 169.026 31.8237 170.491 25.7954Z" fill="#FFC7DE"/>
<path id="Fill 11" fill-rule="evenodd" clip-rule="evenodd" d="M162.389 28.8656C162.525 28.284 162.709 27.7278 162.912 27.1844C158.003 30.3295 155.254 35.2106 155.707 38.0571C152.57 39.4054 150.572 40.5412 150.572 40.5412C150.572 40.5412 152.939 40.3611 156.388 39.6982C158.235 42.3977 163.356 44.2053 169.019 43.5571C163.889 40.9045 160.994 34.8679 162.389 28.8656Z" fill="#FFC7DE"/>
<path id="Fill 13" fill-rule="evenodd" clip-rule="evenodd" d="M178.496 31.1364C177.282 30.8441 176.53 29.6205 176.822 28.395C177.113 27.1779 178.34 26.4237 179.552 26.716C180.771 27.0102 181.516 28.2385 181.226 29.4565C180.933 30.6811 179.715 31.4297 178.496 31.1364ZM172.826 24.3956C172.584 24.9574 172.379 25.5499 172.232 26.1637C170.945 31.5445 173.918 36.9571 178.959 38.8345C183.166 36.2058 185.528 32.4836 184.57 29.2518C183.504 25.6266 178.605 23.7546 172.826 24.3956Z" fill="#FFC7DE"/>
<path id="Fill 15" fill-rule="evenodd" clip-rule="evenodd" d="M101.79 251.456H222.691C225.756 251.456 228.242 248.964 228.242 245.892V164.8C228.242 161.72 225.75 159.223 222.678 159.223H98.8566C97.3907 159.223 96.2032 160.414 96.2032 161.883V245.856C96.2032 248.949 98.7038 251.456 101.79 251.456Z" fill="url(#paint0_linear_630_2082)"/>
<path id="Fill 17" fill-rule="evenodd" clip-rule="evenodd" d="M101.716 250.486H116.387C116.499 250.486 116.592 250.394 116.592 250.281V147.778C116.592 147.665 116.499 147.573 116.387 147.573H101.716C98.6706 147.573 96.2032 150.033 96.2032 153.069V244.989C96.2032 248.025 98.6706 250.486 101.716 250.486Z" fill="url(#paint1_linear_630_2082)"/>
<path id="Fill 19" fill-rule="evenodd" clip-rule="evenodd" d="M197.843 216.505H235.806C235.918 216.505 236.01 216.412 236.01 216.297V193.411C236.01 193.297 235.918 193.204 235.806 193.204H197.843C194.794 193.204 192.32 195.707 192.32 198.794V210.915C192.32 214.003 194.794 216.505 197.843 216.505Z" fill="url(#paint2_linear_630_2082)"/>
<path id="Fill 21" fill-rule="evenodd" clip-rule="evenodd" d="M206.198 147.573H101.849V147.587C98.7203 147.662 96.2032 150.228 96.2032 153.399C96.2032 156.569 98.7203 159.135 101.849 159.211V159.223H212.502C212.616 159.223 212.708 159.131 212.708 159.017V154.132C212.708 150.509 209.793 147.573 206.198 147.573Z" fill="url(#paint3_linear_630_2082)"/>
<path id="Fill 23" fill-rule="evenodd" clip-rule="evenodd" d="M210.767 204.854C210.767 207.536 208.594 209.709 205.913 209.709C203.232 209.709 201.059 207.536 201.059 204.854C201.059 202.173 203.232 200 205.913 200C208.594 200 210.767 202.173 210.767 204.854Z" fill="white"/>
<path id="Stroke 25" d="M11.7382 180.582V183.495" stroke="#FFC7DE" stroke-linecap="round"/>
<path id="Stroke 27" d="M5.91211 183.495L7.85386 185.437" stroke="#FFC7DE" stroke-linecap="round"/>
<path id="Stroke 29" d="M3 189.32H5.91262" stroke="#FFC7DE" stroke-linecap="round"/>
<path id="Stroke 31" d="M5.91211 195.146L7.85386 193.204" stroke="#FFC7DE" stroke-linecap="round"/>
<path id="Stroke 33" d="M11.7382 198.058V195.146" stroke="#FFC7DE" stroke-linecap="round"/>
<path id="Stroke 35" d="M17.5639 195.146L15.6222 193.204" stroke="#FFC7DE" stroke-linecap="round"/>
<path id="Stroke 37" d="M20.4749 189.32H17.5623" stroke="#FFC7DE" stroke-linecap="round"/>
<path id="Stroke 39" d="M17.5639 183.495L15.6222 185.437" stroke="#FFC7DE" stroke-linecap="round"/>
<path id="Stroke 41" d="M161.252 61.1651V63.1068" stroke="#FFC7DE" stroke-width="0.8" stroke-linecap="round"/>
<path id="Stroke 43" d="M156.398 66.0194H158.34" stroke="#FFC7DE" stroke-width="0.8" stroke-linecap="round"/>
<path id="Stroke 45" d="M161.252 71.8446V69.9029" stroke="#FFC7DE" stroke-width="0.8" stroke-linecap="round"/>
<path id="Stroke 47" d="M167.078 66.9902H165.136" stroke="#FFC7DE" stroke-width="0.8" stroke-linecap="round"/>
<path id="Stroke 49" d="M54.4567 137.864V140.777" stroke="#FFC7DE" stroke-linecap="round"/>
<path id="Stroke 51" d="M45.7185 146.602H48.6311" stroke="#FFC7DE" stroke-linecap="round"/>
<path id="Stroke 53" d="M53.4847 154.369V151.456" stroke="#FFC7DE" stroke-linecap="round"/>
<path id="Stroke 55" d="M62.2233 146.602H59.3107" stroke="#FFC7DE" stroke-linecap="round"/>
<path id="Stroke 57" d="M252.514 239.806C254.659 239.806 256.398 241.544 256.398 243.69C256.398 245.834 254.659 247.573 252.514 247.573C250.37 247.573 248.631 245.834 248.631 243.69" stroke="#FFC7DE" stroke-width="0.8" stroke-linecap="round"/>
<path id="Stroke 59" d="M270.896 292.757C271.391 296.224 268.995 299.438 265.545 299.935C262.097 300.432 258.898 298.024 258.404 294.557C257.91 291.089 260.305 287.875 263.755 287.379" stroke="#FFC7DE" stroke-linecap="round"/>
<path id="Fill 61" fill-rule="evenodd" clip-rule="evenodd" d="M270.962 202.912C273.315 202.168 276.923 199.253 277.758 196.116C278.515 198.889 281.689 202.168 284.554 202.417C281.33 203.574 278.247 207.01 277.758 209.709C277.425 206.957 273.162 203.313 270.962 202.912Z" fill="#FFC7DE"/>
<path id="Fill 63" fill-rule="evenodd" clip-rule="evenodd" d="M27.2724 238.349C28.4497 237.977 30.2532 236.519 30.6709 234.951C31.0493 236.337 32.6357 237.977 34.0685 238.102C32.4561 238.68 30.9148 240.398 30.6709 241.748C30.5038 240.372 28.3729 238.549 27.2724 238.349Z" fill="#FFC7DE"/>
<path id="Fill 65" fill-rule="evenodd" clip-rule="evenodd" d="M48.6317 109.709C48.6317 111.318 47.3274 112.621 45.7191 112.621C44.1099 112.621 42.8065 111.318 42.8065 109.709C42.8065 108.099 44.1099 106.796 45.7191 106.796C47.3274 106.796 48.6317 108.099 48.6317 109.709Z" fill="#FFC7DE"/>
<path id="Fill 69" fill-rule="evenodd" clip-rule="evenodd" d="M328.243 103.883C328.243 106.029 326.505 107.767 324.36 107.767C322.214 107.767 320.476 106.029 320.476 103.883C320.476 101.738 322.214 99.9999 324.36 99.9999C326.505 99.9999 328.243 101.738 328.243 103.883Z" fill="#FFC7DE"/>
<path id="Stroke 73" fill-rule="evenodd" clip-rule="evenodd" d="M104.943 89.3203C104.943 90.9295 103.638 92.2329 102.03 92.2329C100.421 92.2329 99.1173 90.9295 99.1173 89.3203C99.1173 87.7111 100.421 86.4077 102.03 86.4077C103.638 86.4077 104.943 87.7111 104.943 89.3203Z" stroke="#FFC7DE" stroke-width="0.8" stroke-linecap="round"/>
<path id="Stroke 75" fill-rule="evenodd" clip-rule="evenodd" d="M59.7207 273.532C57.7166 274.294 55.4743 273.288 54.7119 271.284C53.9484 269.279 54.9559 267.037 56.96 266.275C58.9641 265.511 61.2064 266.519 61.9689 268.523C62.7313 270.527 61.7248 272.769 59.7207 273.532Z" stroke="#FFC7DE" stroke-width="0.8" stroke-linecap="round"/>
</g>
<defs>
<linearGradient id="paint0_linear_630_2082" x1="227.749" y1="205.686" x2="115.876" y2="205.686" gradientUnits="userSpaceOnUse">
<stop stop-color="#F094BB"/>
<stop offset="1" stop-color="#FFC9DF"/>
</linearGradient>
<linearGradient id="paint1_linear_630_2082" x1="106.397" y1="147.573" x2="106.397" y2="250.486" gradientUnits="userSpaceOnUse">
<stop stop-color="#F0A6C5"/>
<stop offset="1" stop-color="#E678A6"/>
</linearGradient>
<linearGradient id="paint2_linear_630_2082" x1="214.165" y1="181.553" x2="194.815" y2="217.835" gradientUnits="userSpaceOnUse">
<stop stop-color="#FF006B"/>
<stop offset="1" stop-color="#FF62A5"/>
</linearGradient>
<linearGradient id="paint3_linear_630_2082" x1="154.456" y1="147.573" x2="154.456" y2="159.223" gradientUnits="userSpaceOnUse">
<stop stop-color="#F074A8"/>
<stop offset="1" stop-color="#ED8AB4"/>
</linearGradient>
</defs>
</svg>
