<svg width="16" height="16" viewBox="0 0 16 16" fill="none" xmlns="http://www.w3.org/2000/svg">
<path d="M11.7467 7.16667C11.46 7.16667 11.2334 6.93334 11.2334 6.65334C11.2334 6.40667 10.9867 5.89334 10.5734 5.44667C10.1667 5.01334 9.72004 4.76 9.34671 4.76C9.06004 4.76 8.83337 4.52667 8.83337 4.24667C8.83337 3.96667 9.06671 3.73334 9.34671 3.73334C10.0134 3.73334 10.7134 4.09334 11.3267 4.74C11.9 5.34667 12.2667 6.1 12.2667 6.64667C12.2667 6.93334 12.0334 7.16667 11.7467 7.16667Z" fill="#CF0106"/>
<path d="M14.1533 7.16665C13.8666 7.16665 13.64 6.93331 13.64 6.65331C13.64 4.28665 11.7133 2.36665 9.3533 2.36665C9.06663 2.36665 8.83997 2.13331 8.83997 1.85331C8.83997 1.57331 9.06663 1.33331 9.34663 1.33331C12.28 1.33331 14.6666 3.71998 14.6666 6.65331C14.6666 6.93331 14.4333 7.16665 14.1533 7.16665Z" fill="#CF0106"/>
<path d="M7.36671 9.96665L6.13337 11.2C5.87337 11.46 5.46004 11.46 5.19337 11.2066C5.12004 11.1333 5.04671 11.0666 4.97337 10.9933C4.28671 10.3 3.66671 9.57331 3.11337 8.81331C2.56671 8.05331 2.12671 7.29331 1.80671 6.53998C1.49337 5.77998 1.33337 5.05331 1.33337 4.35998C1.33337 3.90665 1.41337 3.47331 1.57337 3.07331C1.73337 2.66665 1.98671 2.29331 2.34004 1.95998C2.76671 1.53998 3.23337 1.33331 3.72671 1.33331C3.91337 1.33331 4.10004 1.37331 4.26671 1.45331C4.44004 1.53331 4.59337 1.65331 4.71337 1.82665L6.26004 4.00665C6.38004 4.17331 6.46671 4.32665 6.52671 4.47331C6.58671 4.61331 6.62004 4.75331 6.62004 4.87998C6.62004 5.03998 6.57337 5.19998 6.48004 5.35331C6.39337 5.50665 6.26671 5.66665 6.10671 5.82665L5.60004 6.35331C5.52671 6.42665 5.49337 6.51331 5.49337 6.61998C5.49337 6.67331 5.50004 6.71998 5.51337 6.77331C5.53337 6.82665 5.55337 6.86665 5.56671 6.90665C5.68671 7.12665 5.89337 7.41331 6.18671 7.75998C6.48671 8.10665 6.80671 8.45998 7.15337 8.81331C7.22004 8.87998 7.29337 8.94665 7.36004 9.01331C7.62671 9.27331 7.63337 9.69998 7.36671 9.96665Z" fill="#CF0106"/>
<path d="M14.6467 12.22C14.6467 12.4067 14.6134 12.6 14.5467 12.7867C14.5267 12.84 14.5067 12.8933 14.48 12.9467C14.3667 13.1867 14.22 13.4133 14.0267 13.6267C13.7 13.9867 13.34 14.2467 12.9334 14.4133C12.9267 14.4133 12.92 14.42 12.9134 14.42C12.52 14.58 12.0934 14.6667 11.6334 14.6667C10.9534 14.6667 10.2267 14.5067 9.46002 14.18C8.69336 13.8533 7.92669 13.4133 7.16669 12.86C6.90669 12.6667 6.64669 12.4733 6.40002 12.2667L8.58002 10.0867C8.76669 10.2267 8.93336 10.3333 9.07336 10.4067C9.10669 10.42 9.14669 10.44 9.19336 10.46C9.24669 10.48 9.30002 10.4867 9.36002 10.4867C9.47336 10.4867 9.56002 10.4467 9.63336 10.3733L10.14 9.87332C10.3067 9.70665 10.4667 9.57999 10.62 9.49999C10.7734 9.40665 10.9267 9.35999 11.0934 9.35999C11.22 9.35999 11.3534 9.38665 11.5 9.44665C11.6467 9.50665 11.8 9.59332 11.9667 9.70665L14.1734 11.2733C14.3467 11.3933 14.4667 11.5333 14.54 11.7C14.6067 11.8667 14.6467 12.0333 14.6467 12.22Z" fill="#CF0106"/>
</svg>
